<svg xmlns="http://www.w3.org/2000/svg">
    <symbol id="pencil" viewBox="0 0 24 24" fill="none"><g stroke="currentColor" stroke-linecap="round" stroke-linejoin="round" stroke-width="2" clip-path="url(#a)"><path d="m12.38 14.827-4.878.878.813-4.942 9.315-9.282a1.627 1.627 0 0 1 2.309 0l1.723 1.723a1.626 1.626 0 0 1 0 2.308l-9.282 9.315Z"/><path d="M19.695 15.64v4.877a1.626 1.626 0 0 1-1.625 1.626H2.626A1.626 1.626 0 0 1 1 20.517V5.074a1.626 1.626 0 0 1 1.626-1.626h4.877"/></g><defs><clipPath id="a"><path fill="currentColor" d="M0 0h24v24H0z"/></clipPath></defs></symbol>
    <symbol id="design" viewBox="0 0 24 24" fill="none"><g stroke="currentColor" stroke-linecap="round" stroke-linejoin="round" stroke-width="2" clip-path="url(#a)"><path d="M10.156 19.8C7.668 22.306 3.44 23.136 1 20.63c3.253-3.366 0-4.992 2.44-7.432a4.716 4.716 0 1 1 6.65 6.668l.066-.065Z"/><path d="M21.198 1.945a3.252 3.252 0 0 0-2.407-.943 3.253 3.253 0 0 0-2.341 1.09L7.7 11.849a4.635 4.635 0 0 1 2.456 1.35 4.878 4.878 0 0 1 1.252 2.13l9.644-8.635a3.253 3.253 0 0 0 1.09-2.326 3.252 3.252 0 0 0-.944-2.423Z"/></g><defs><clipPath id="a"><path fill="currentColor" d="M0 0h24v24H0z"/></clipPath></defs></symbol>
    <symbol id="integration" viewBox="0 0 24 24" fill="none"><path fill="currentColor" d="m8.85 12 1.45-1.45c.2-.2.296-.433.288-.7a1.022 1.022 0 0 0-1.001-1.013.925.925 0 0 0-.712.288L6.7 11.3c-.2.2-.3.433-.3.7 0 .267.1.5.3.7l2.175 2.175c.2.2.438.296.713.288.275-.008.513-.112.712-.313.183-.2.28-.433.288-.7a.913.913 0 0 0-.288-.7L8.85 12Zm6.3 0-1.45 1.45c-.2.2-.296.433-.288.7.008.267.104.5.288.7.2.2.438.304.713.312a.931.931 0 0 0 .712-.287L17.3 12.7c.2-.2.3-.433.3-.7 0-.267-.1-.5-.3-.7l-2.175-2.175a.933.933 0 0 0-.713-.288 1.013 1.013 0 0 0-.712.313c-.183.2-.279.433-.287.7a.92.92 0 0 0 .287.7L15.15 12ZM5 21c-.55 0-1.021-.196-1.413-.588A1.922 1.922 0 0 1 3 19V5c0-.55.196-1.021.588-1.413A1.922 1.922 0 0 1 5 3h4.2c.217-.6.58-1.083 1.088-1.45A2.857 2.857 0 0 1 12 1a2.86 2.86 0 0 1 1.713.55c.509.367.871.85 1.087 1.45H19c.55 0 1.021.196 1.413.588.392.392.588.863.587 1.412v14c0 .55-.196 1.021-.588 1.413A1.922 1.922 0 0 1 19 21H5Zm0-2h14V5H5v14Zm7-14.75a.726.726 0 0 0 .75-.75.726.726 0 0 0-.75-.75.726.726 0 0 0-.75.75.726.726 0 0 0 .75.75Z"/></symbol>
    <symbol id="shop" viewBox="0 0 24 24" fill="none"><path fill="currentColor" d="M19.148 2.971A2.008 2.008 0 0 0 17.434 2H6.566c-.698 0-1.355.372-1.714.971L2.143 7.485A.995.995 0 0 0 2 8a3.97 3.97 0 0 0 1 2.618V19c0 1.103.897 2 2 2h14c1.103 0 2-.897 2-2v-8.382A3.97 3.97 0 0 0 22 8c0-.181-.05-.36-.143-.515l-2.709-4.514Zm.836 5.28A2.003 2.003 0 0 1 18 10c-1.103 0-2-.897-2-2 0-.068-.025-.128-.039-.192l.02-.004L15.22 4h2.214l2.55 4.251ZM10.819 4h2.361l.813 4.065A1.999 1.999 0 0 1 12 10a1.999 1.999 0 0 1-1.993-1.935L10.819 4ZM6.566 4H8.78l-.76 3.804.02.004C8.025 7.872 8 7.932 8 8c0 1.103-.897 2-2 2a2.003 2.003 0 0 1-1.984-1.749L6.566 4ZM10 19v-3h4v3h-4Zm6 0v-3c0-1.103-.897-2-2-2h-4c-1.103 0-2 .897-2 2v3H5v-7.142c.321.083.652.142 1 .142a3.99 3.99 0 0 0 3-1.357A3.99 3.99 0 0 0 12 12a3.99 3.99 0 0 0 3-1.357A3.99 3.99 0 0 0 18 12c.348 0 .679-.059 1-.142V19h-3Z"/></symbol>
    <symbol id="application" fill="none"><path fill="currentColor" d="M4 20c-.55 0-1.021-.196-1.413-.588A1.922 1.922 0 0 1 2 18V6c0-.55.196-1.021.588-1.413A1.922 1.922 0 0 1 4 4h16c.55 0 1.021.196 1.413.588.392.392.588.863.587 1.412v12c0 .55-.196 1.021-.588 1.413A1.922 1.922 0 0 1 20 20H4ZM20 8l-7.475 4.675a1.05 1.05 0 0 1-.525.15 1.015 1.015 0 0 1-.525-.15L4 8v10h16V8Zm-8 3 8-5H4l8 5ZM4 8.25V6.775 6.8v-.012V8.25Z"/></symbol>
    <symbol id="setting" viewBox="0 0 24 24" fill="none"><path d="M19.9 12.66a1 1 0 0 1 0-1.32l1.28-1.44a1 1 0 0 0 .12-1.17l-2-3.46a1 1 0 0 0-1.07-.48l-1.88.38a1 1 0 0 1-1.15-.66l-.61-1.83a1 1 0 0 0-.95-.68h-4a1 1 0 0 0-1 .68l-.56 1.83a1 1 0 0 1-1.15.66L5 4.79a1 1 0 0 0-1 .48L2 8.73a1 1 0 0 0 .1 1.17l1.27 1.44a1 1 0 0 1 0 1.32L2.1 14.1a1 1 0 0 0-.1 1.17l2 3.46a1 1 0 0 0 1.07.48l1.88-.38a1 1 0 0 1 1.15.66l.61 1.83a1 1 0 0 0 1 .68h4a1 1 0 0 0 .95-.68l.61-1.83a1 1 0 0 1 1.15-.66l1.88.38a1 1 0 0 0 1.07-.48l2-3.46a1 1 0 0 0-.12-1.17l-1.35-1.44ZM18.41 14l.8.9-1.28 2.22-1.18-.24a3 3 0 0 0-3.45 2L12.92 20h-2.56L10 18.86a3 3 0 0 0-3.45-2l-1.18.24-1.3-2.21.8-.9a3 3 0 0 0 0-4l-.8-.9 1.28-2.2 1.18.24a3 3 0 0 0 3.45-2L10.36 4h2.56l.38 1.14a3 3 0 0 0 3.45 2l1.18-.24 1.28 2.22-.8.9a3 3 0 0 0 0 3.98Zm-6.77-6a4 4 0 1 0 0 8 4 4 0 0 0 0-8Zm0 6a2 2 0 1 1 0-4 2 2 0 0 1 0 4Z" fill="currentColor"/></symbol>
    <symbol id="quizes" viewBox="0 0 37 38" fill="none"><path d="M33.917 12.832a1.543 1.543 0 0 0-.796-1.348L19.212 3.776a1.546 1.546 0 0 0-1.492 0L3.879 11.423a1.541 1.541 0 0 0-.005 2.694l13.91 7.77a1.534 1.534 0 0 0 1.5.002l13.84-7.708a1.542 1.542 0 0 0 .793-1.35Zm-15.382 5.943L7.801 12.779l10.664-5.892 10.736 5.95-10.666 5.938Z" fill="currentColor"/><path d="M31.627 17.652 18.5 24.944 5.373 17.652l-1.497 2.695 13.875 7.708a1.54 1.54 0 0 0 1.497 0l13.875-7.708-1.496-2.695Z" fill="currentColor"/><path d="M31.627 23.82 18.5 31.11 5.373 23.82l-1.497 2.695 13.875 7.708a1.54 1.54 0 0 0 1.497 0l13.875-7.708-1.496-2.695Z" fill="currentColor"/></symbol>
    <symbol id="analitic" viewBox="0 0 24 24" fill="none"><path d="M3.472 21.143H19.67c.813 0 1.473-.66 1.473-1.473V3.472c0-.813-.66-1.472-1.473-1.472H3.472C2.66 2 2 2.659 2 3.472V19.67c0 .813.659 1.473 1.472 1.473Z" stroke="currentColor" stroke-width="2" stroke-linecap="round" stroke-linejoin="round"/><path d="M5.682 5.682h2.945M5.682 9.363h6.626m5.89 0-4.417 7.363-5.154-2.945-2.945 4.417" stroke="currentColor" stroke-width="2" stroke-linecap="round" stroke-linejoin="round"/></symbol>
    <symbol id="dollar" viewBox="0 0 24 24" fill="none"><path d="M12 2a10 10 0 1 0 0 20 10 10 0 0 0 0-20Zm0 18a8 8 0 1 1 0-16.001A8 8 0 0 1 12 20Z" fill="currentColor"/><path d="M12 11c-2 0-2-.63-2-1s.7-1 2-1 1.39.64 1.4 1h2A3 3 0 0 0 13 7.12V6h-2v1.09C9 7.42 8 8.71 8 10c0 1.12.52 3 4 3 2 0 2 .68 2 1 0 .32-.62 1-2 1-1.84 0-2-.86-2-1H8c0 .92.66 2.55 3 2.92V18h2v-1.08c2-.34 3-1.63 3-2.92 0-1.12-.52-3-4-3Z" fill="currentColor"/></symbol>
    <symbol id="docs" viewBox="0 0 24 24" fill="none"><path d="M19.937 8.68c-.011-.032-.02-.063-.033-.094a.997.997 0 0 0-.196-.293l-6-6a.997.997 0 0 0-.293-.196c-.03-.014-.062-.022-.094-.033a.991.991 0 0 0-.259-.051C13.04 2.011 13.021 2 13 2H6c-1.103 0-2 .897-2 2v16c0 1.103.897 2 2 2h12c1.103 0 2-.897 2-2V9c0-.021-.011-.04-.013-.062a.987.987 0 0 0-.05-.258ZM16.586 8H14V5.414L16.586 8ZM6 20V4h6v5a1 1 0 0 0 1 1h5l.002 10H6Z" fill="currentColor"/></symbol>
    <symbol id="date" viewBox="0 0 30 30" fill="none"><rect x="1.496" y="5.554" width="27.008" height="18.893" rx=".784" fill="currentColor"/><circle cx="4.893" cy="9.772" r=".784" fill="#fff"/><circle cx="8.03" cy="9.772" r=".784" fill="#fff"/><circle cx="11.165" cy="9.772" r=".784" fill="#fff"/><circle cx="4.893" cy="12.386" r=".784" fill="#fff"/><circle cx="8.03" cy="12.386" r=".784" fill="#fff"/><circle cx="11.165" cy="12.386" r=".784" fill="#fff"/><circle cx="4.893" cy="15" r=".784" fill="#fff"/><circle cx="8.03" cy="15" r=".784" fill="#fff"/><circle cx="11.165" cy="15" r=".784" fill="#fff"/><g clip-path="url(#a)" fill="#fff"><path d="M23.275 16.432c-1.601 0-2.904 1.284-2.904 2.862 0 1.579 1.303 2.863 2.904 2.863s2.904-1.284 2.904-2.863c0-1.578-1.303-2.862-2.904-2.862Zm0 5.152c-1.28 0-2.323-1.027-2.323-2.29 0-1.262 1.042-2.29 2.323-2.29s2.323 1.027 2.323 2.29c0 1.263-1.042 2.29-2.323 2.29Z"/><path d="M23.565 17.863h-.58v1.718h1.742v-.573h-1.162v-1.145Z"/></g><defs><clipPath id="a"><path fill="#fff" transform="translate(19.791 15.86)" d="M0 0h6.97v6.87H0z"/></clipPath></defs></symbol>
    <symbol id="time" viewBox="0 0 24 24" fill="none"><path d="M11.99 2C6.47 2 2 6.48 2 12s4.47 10 9.99 10C17.52 22 22 17.52 22 12S17.52 2 11.99 2ZM12 20c-4.42 0-8-3.58-8-8s3.58-8 8-8 8 3.58 8 8-3.58 8-8 8Zm-.22-13h-.06c-.4 0-.72.32-.72.72v4.72c0 .35.18.68.49.86l4.15 2.49c.34.2.78.1.98-.24a.71.71 0 0 0-.25-.99l-3.87-2.3V7.72c0-.4-.32-.72-.72-.72Z" fill="currentColor"/></symbol>
    <symbol id="search" viewBox="0 0 24 24" fill="none"><path d="M10 18a7.952 7.952 0 0 0 4.897-1.688l4.396 4.396 1.414-1.414-4.396-4.396A7.952 7.952 0 0 0 18 10c0-4.411-3.589-8-8-8s-8 3.589-8 8 3.589 8 8 8Zm0-14c3.309 0 6 2.691 6 6s-2.691 6-6 6-6-2.691-6-6 2.691-6 6-6Z" fill="currentColor"/></symbol>
    <symbol id="close" viewBox="0 0 24 24" fill="none"><path d="M18.3 5.71a.996.996 0 0 0-1.41 0L12 10.59 7.11 5.7A.997.997 0 1 0 5.7 7.11L10.59 12 5.7 16.89a.997.997 0 0 0 1.41 1.41L12 13.41l4.89 4.89a.997.997 0 0 0 1.41-1.41L13.41 12l4.89-4.89c.38-.38.38-1.02 0-1.4Z" fill="currentColor"/></symbol>
    <symbol id="arrow" viewBox="0 0 18 18"><path d="m7 7 3.928 3.848a.1.1 0 0 1 .002.142L7 15" stroke="currentColor" stroke-width="2" stroke-linecap="round"/></symbol>
    <symbol id="wallet" viewBox="0 0 24 24"><path d="M16 12h2v4h-2v-4Z" fill="currentColor"/><path d="M20 7V5c0-1.103-.897-2-2-2H5C3.346 3 2 4.346 2 6v12c0 2.201 1.794 3 3 3h15c1.103 0 2-.897 2-2V9c0-1.103-.897-2-2-2ZM5 5h13v2H5a1.001 1.001 0 0 1 0-2Zm15 14H5.012C4.55 18.988 4 18.805 4 18V8.815c.314.113.647.185 1 .185h15v10Z" fill="currentColor"/></symbol>
    <symbol id="moon" viewBox="0 0 24 24" fill="none"><path d="M19.85 13.098a7.405 7.405 0 0 1-1.9.247 7.255 7.255 0 0 1-5.163-2.135 7.337 7.337 0 0 1-1.888-7.06.914.914 0 0 0-1.12-1.119 9.159 9.159 0 0 0-4.105 2.36c-3.565 3.564-3.565 9.365 0 12.93A9.088 9.088 0 0 0 12.14 21a9.087 9.087 0 0 0 6.466-2.678 9.148 9.148 0 0 0 2.363-4.105.915.915 0 0 0-1.12-1.12Zm-2.535 3.931a7.266 7.266 0 0 1-5.173 2.143 7.274 7.274 0 0 1-5.174-2.143c-2.852-2.852-2.852-7.492 0-10.344A7.246 7.246 0 0 1 8.852 5.33a9.164 9.164 0 0 0 2.643 7.175 9.12 9.12 0 0 0 7.177 2.643 7.347 7.347 0 0 1-1.357 1.882Z" fill="currentColor"/></symbol>
    <symbol id="sun" viewBox="0 0 24 24" fill="none"><path d="M7.495 12a4.511 4.511 0 0 0 4.507 4.506A4.511 4.511 0 0 0 16.508 12a4.511 4.511 0 0 0-4.506-4.506A4.511 4.511 0 0 0 7.495 12Zm4.507-2.706A2.71 2.71 0 0 1 14.708 12a2.71 2.71 0 0 1-2.706 2.706A2.71 2.71 0 0 1 9.295 12a2.71 2.71 0 0 1 2.707-2.706ZM11.1 18.3h1.8V21h-1.8v-2.7Zm0-15.3h1.8v2.7h-1.8V3ZM3 11.1h2.7v1.8H3v-1.8Zm15.3 0H21v1.8h-2.7v-1.8ZM4.999 17.727l1.908-1.91L8.18 17.09 6.272 19 5 17.726ZM15.818 6.91 17.728 5 19 6.272l-1.91 1.91-1.272-1.272ZM6.91 8.183 5 6.273l1.273-1.272 1.908 1.91L6.91 8.182ZM19 17.728 17.728 19l-1.91-1.91 1.272-1.272 1.91 1.91Z" fill="currentColor"/></symbol>
    <symbol id="arrow-bottom" viewBox="0 0 24 24" fill="none"><path d="m16 10-3.848 3.928a.1.1 0 0 1-.142.002L8 10" stroke="currentColor" stroke-width="2" stroke-linecap="round"/></symbol>
    <symbol id="arrow-2" viewBox="0 0 16 16" fill="none"><path d="m10.06 12 .94-.94L7.947 8 11 4.94 10.06 4l-4 4 4 4Z" fill="currentColor"/></symbol>
    <symbol id="history" viewBox="0 0 24 24" fill="none"><path d="M12 8v5h5v-2h-3V8h-2Z" fill="currentColor"/><path d="M21.292 8.497a9.004 9.004 0 0 0-6.478-5.314 9.09 9.09 0 0 0-3.626 0 8.965 8.965 0 0 0-4.552 2.453A8.963 8.963 0 0 0 4 12l.001.025H2L5 16l3-3.975H6.001L6 12a6.957 6.957 0 0 1 1.195-3.913 7.066 7.066 0 0 1 1.891-1.892 7.003 7.003 0 0 1 10.772 4.391 7.118 7.118 0 0 1 0 2.824 6.937 6.937 0 0 1-1.054 2.503 7.057 7.057 0 0 1-3.079 2.537 6.976 6.976 0 0 1-1.313.408 7.117 7.117 0 0 1-2.823 0 6.956 6.956 0 0 1-2.501-1.053 7.066 7.066 0 0 1-1.037-.855l-1.414 1.414A8.984 8.984 0 0 0 13 21a9.05 9.05 0 0 0 3.503-.707 9.009 9.009 0 0 0 4.789-11.796Z" fill="currentColor"/></symbol>
    <symbol id="magazine" viewBox="0 0 24 24" fill="none"><path d="M19.148 2.971A2.008 2.008 0 0 0 17.434 2H6.566c-.698 0-1.355.372-1.714.971L2.143 7.485A.995.995 0 0 0 2 8a3.97 3.97 0 0 0 1 2.618V19c0 1.103.897 2 2 2h14c1.103 0 2-.897 2-2v-8.382A3.97 3.97 0 0 0 22 8c0-.181-.05-.36-.143-.515l-2.709-4.514Zm.836 5.28A2.003 2.003 0 0 1 18 10c-1.103 0-2-.897-2-2 0-.068-.025-.128-.039-.192l.02-.004L15.22 4h2.214l2.55 4.251ZM10.819 4h2.361l.813 4.065A1.999 1.999 0 0 1 12 10a1.999 1.999 0 0 1-1.993-1.935L10.819 4ZM6.566 4H8.78l-.76 3.804.02.004C8.025 7.872 8 7.932 8 8c0 1.103-.897 2-2 2a2.003 2.003 0 0 1-1.984-1.749L6.566 4ZM10 19v-3h4v3h-4Zm6 0v-3c0-1.103-.897-2-2-2h-4c-1.103 0-2 .897-2 2v3H5v-7.142c.321.083.652.142 1 .142a3.99 3.99 0 0 0 3-1.357A3.99 3.99 0 0 0 12 12a3.99 3.99 0 0 0 3-1.357A3.99 3.99 0 0 0 18 12c.348 0 .679-.059 1-.142V19h-3Z" fill="currentColor"/></symbol>
    <symbol id="vk" viewBox="0 0 22 22"><path d="M11 0C4.925 0 0 4.925 0 11s4.925 11 11 11 11-4.925 11-11S17.075 0 11 0Zm4.23 12.41s.973.96 1.213 1.406c.007.01.01.019.012.023.098.164.12.291.073.386-.08.159-.356.237-.45.243H14.36c-.12 0-.37-.03-.672-.239-.232-.163-.462-.43-.685-.69-.334-.387-.622-.722-.913-.722a.347.347 0 0 0-.11.018c-.22.07-.501.384-.501 1.22 0 .262-.206.412-.352.412h-.787c-.268 0-1.665-.094-2.902-1.399-1.515-1.598-2.879-4.804-2.89-4.834-.086-.207.091-.319.285-.319H6.57c.232 0 .307.141.36.266.062.146.289.724.661 1.375.604 1.061.974 1.492 1.27 1.492.056 0 .111-.015.16-.041.387-.216.315-1.596.298-1.883 0-.054-.001-.617-.2-.888-.142-.196-.383-.27-.53-.298a.63.63 0 0 1 .228-.193c.266-.133.745-.153 1.22-.153h.265c.516.007.649.04.835.087.379.09.387.335.353 1.17-.01.237-.02.506-.02.822 0 .069-.004.142-.004.22-.011.425-.025.907.275 1.106.04.024.085.037.13.037.105 0 .42 0 1.27-1.458.261-.47.49-.958.681-1.46.017-.03.068-.122.127-.157a.305.305 0 0 1 .142-.033h2.041c.222 0 .375.033.403.119.05.136-.009.552-.94 1.814l-.416.549c-.845 1.107-.845 1.163.052 2.003Z" fill="#1A76FF"/></symbol>
    <symbol id="tg" viewBox="0 0 22 22" fill="none">
        <g clip-path="url(#clip0_764_46999)">
        <path d="M11 0C8.08328 0 5.28344 1.15964 3.22266 3.2218C1.15975 5.28477 0.000571433 8.08256 0 11C0 13.9162 1.16016 16.716 3.22266 18.7782C5.28344 20.8404 8.08328 22 11 22C13.9167 22 16.7166 20.8404 18.7773 18.7782C20.8398 16.716 22 13.9162 22 11C22 8.0838 20.8398 5.28395 18.7773 3.2218C16.7166 1.15964 13.9167 0 11 0Z" fill="url(#paint0_linear_764_46999)"/>
        <path d="M4.97903 10.884C8.18621 9.48703 10.3243 8.56596 11.3934 8.12097C14.4493 6.8503 15.0836 6.62961 15.4978 6.62214C15.5889 6.62067 15.7917 6.64319 15.924 6.75018C16.034 6.84042 16.065 6.96245 16.0804 7.04813C16.0942 7.13372 16.1131 7.3288 16.0976 7.48108C15.9326 9.22046 15.2159 13.4414 14.8515 15.3896C14.6986 16.2139 14.3943 16.4903 14.1004 16.5172C13.4611 16.576 12.9764 16.0951 12.3576 15.6897C11.39 15.0549 10.8434 14.66 9.90325 14.0407C8.817 13.325 9.52168 12.9316 10.1404 12.2888C10.302 12.1205 13.1173 9.56042 13.1706 9.32822C13.1775 9.29917 13.1843 9.19089 13.119 9.13383C13.0554 9.0766 12.9609 9.09619 12.8922 9.11166C12.7942 9.13366 11.249 10.156 8.25153 12.1784C7.81325 12.4799 7.41621 12.6268 7.05871 12.6191C6.66684 12.6107 5.91059 12.3971 5.34856 12.2145C4.66106 11.9906 4.11278 11.8721 4.1609 11.4918C4.18496 11.2938 4.45825 11.0911 4.97903 10.884Z" fill="white"/>
        </g>
        <defs>
        <linearGradient id="paint0_linear_764_46999" x1="1100" y1="0" x2="1100" y2="2200" gradientUnits="userSpaceOnUse">
        <stop stop-color="#2AABEE"/>
        <stop offset="1" stop-color="#229ED9"/>
        </linearGradient>
        <clipPath id="clip0_764_46999">
        <rect width="22" height="22" fill="white"/>
        </clipPath> 
        </defs>
    </symbol>
    <symbol id="exit" viewBox="0 0 24 24" fill="none"><path d="M9.8 16.275a.947.947 0 0 1-.288-.725 1.03 1.03 0 0 1 .313-.725L11.65 13H4a.968.968 0 0 1-.713-.288A.964.964 0 0 1 3 12c0-.283.096-.521.288-.713A.964.964 0 0 1 4 11h7.65L9.8 9.15c-.2-.2-.3-.438-.3-.713 0-.275.1-.513.3-.712.2-.2.438-.3.713-.3.275 0 .513.1.712.3L14.8 11.3c.1.1.171.208.213.325.042.117.063.242.062.375 0 .133-.02.258-.062.375a.865.865 0 0 1-.213.325l-3.6 3.6a.932.932 0 0 1-.687.275.976.976 0 0 1-.713-.3ZM5 21c-.55 0-1.021-.196-1.413-.588A1.922 1.922 0 0 1 3 19v-3c0-.283.096-.521.288-.713A.964.964 0 0 1 4 15c.283 0 .521.096.713.288.192.192.288.43.287.712v3h14V5H5v3a.968.968 0 0 1-.288.713A.964.964 0 0 1 4 9a.968.968 0 0 1-.713-.288A.964.964 0 0 1 3 8V5c0-.55.196-1.021.588-1.413A1.922 1.922 0 0 1 5 3h14c.55 0 1.021.196 1.413.588.392.392.588.863.587 1.412v14c0 .55-.196 1.021-.588 1.413A1.922 1.922 0 0 1 19 21H5Z" fill="currentColor"/></symbol>
    <symbol id="trash" viewBox="0 0 24 24" fill="none"><path fill-rule="evenodd" clip-rule="evenodd" d="M17 6V5a2 2 0 0 0-2-2H9a2 2 0 0 0-2 2v1H4a1 1 0 0 0 0 2h1v11a3 3 0 0 0 3 3h8a3 3 0 0 0 3-3V8h1a1 1 0 1 0 0-2h-3Zm-2-1H9v1h6V5Zm2 3H7v11a1 1 0 0 0 1 1h8a1 1 0 0 0 1-1V8Z" fill="currentColor"/></symbol>
    <symbol id="plus" viewBox="0 0 24 24" fill="none"><path fill-rule="evenodd" clip-rule="evenodd" d="M12.5 4a1 1 0 0 0-1 1v5.5H6a1 1 0 1 0 0 2h5.5V18a1 1 0 1 0 2 0v-5.5H19a1 1 0 1 0 0-2h-5.5V5a1 1 0 0 0-1-1Z" fill="currentColor"/></symbol>
    <symbol id="copy" viewBox="0 0 24 24" fill="none"><path d="M5 22c-.55 0-1.021-.196-1.413-.588A1.922 1.922 0 0 1 3 20V7c0-.283.096-.521.288-.713A.964.964 0 0 1 4 6c.283 0 .521.096.713.288.192.192.288.43.287.712v13h10c.283 0 .521.096.713.288.192.192.288.43.287.712a.968.968 0 0 1-.288.713A.964.964 0 0 1 15 22H5Zm4-4c-.55 0-1.021-.196-1.413-.588A1.922 1.922 0 0 1 7 16V4c0-.55.196-1.021.588-1.413A1.922 1.922 0 0 1 9 2h9c.55 0 1.021.196 1.413.588.392.392.588.863.587 1.412v12c0 .55-.196 1.021-.588 1.413A1.922 1.922 0 0 1 18 18H9Zm0-2h9V4H9v12Z" fill="currentColor"/></symbol>
    <symbol id="eye" fill="none" viewBox="0 0 24 24"><path d="M12 6.5a9.77 9.77 0 0 1 8.82 5.5A9.76 9.76 0 0 1 12 17.5 9.76 9.76 0 0 1 3.18 12 9.77 9.77 0 0 1 12 6.5Zm0-2C7 4.5 2.73 7.61 1 12c1.73 4.39 6 7.5 11 7.5s9.27-3.11 11-7.5c-1.73-4.39-6-7.5-11-7.5Zm0 5a2.5 2.5 0 1 1 0 5 2.5 2.5 0 0 1 0-5Zm0-2c-2.48 0-4.5 2.02-4.5 4.5s2.02 4.5 4.5 4.5 4.5-2.02 4.5-4.5-2.02-4.5-4.5-4.5Z" fill="currentColor"/></symbol>
    <symbol id="chart-bar" viewBox="0 0 24 24" fill="none"><path d="M20 7h-4V4c0-1.103-.897-2-2-2h-4c-1.103 0-2 .897-2 2v5H4c-1.103 0-2 .897-2 2v9a1 1 0 0 0 1 1h18a1 1 0 0 0 1-1V9c0-1.103-.897-2-2-2ZM4 11h4v8H4v-8Zm6-1V4h4v15h-4v-9Zm10 9h-4V9h4v10Z" fill="currentColor"/></symbol>
    <symbol id="more" viewBox="0 0 24 24" fill="none"><circle cx="6" cy="12" r="2" fill="#444758"/><circle cx="12" cy="12" r="2" fill="#444758"/><circle cx="18" cy="12" r="2" fill="#444758"/></symbol>
    <symbol id="arrow-3" viewBox="0 0 15 18" fill="none"><path d="M10 5 6.071 8.848a.1.1 0 0 0-.001.142L10 13" stroke="currentColor" stroke-width="2" stroke-linecap="round"/></symbol>
    <symbol id="menu" viewBox="0 0 24 24" fill="none"><rect x="2" y="5" width="20" height="2" rx="1" fill="currentColor"/><rect x="2" y="11" width="20" height="2" rx="1" fill="currentColor"/><rect x="2" y="17" width="20" height="2" rx="1" fill="currentColor"/></symbol>
    <symbol id="laptop" viewBox="0 0 24 24" fill="none"><path d="M20 18c1.1 0 1.99-.9 1.99-2L22 5c0-1.1-.9-2-2-2H4c-1.1 0-2 .9-2 2v11c0 1.1.9 2 2 2H0c0 1.1.9 2 2 2h20c1.1 0 2-.9 2-2h-4ZM5 5h14c.55 0 1 .45 1 1v9c0 .55-.45 1-1 1H5c-.55 0-1-.45-1-1V6c0-.55.45-1 1-1Zm7 14c-.55 0-1-.45-1-1s.45-1 1-1 1 .45 1 1-.45 1-1 1Z" fill="currentColor"/></symbol>
    <symbol id="phone" viewBox="0 0 24 24" fill="none"><path d="M15.5 1h-8A2.5 2.5 0 0 0 5 3.5v17A2.5 2.5 0 0 0 7.5 23h8a2.5 2.5 0 0 0 2.5-2.5v-17A2.5 2.5 0 0 0 15.5 1Zm-4 21c-.83 0-1.5-.67-1.5-1.5s.67-1.5 1.5-1.5 1.5.67 1.5 1.5-.67 1.5-1.5 1.5Zm4.5-4H7V4h9v14Z" fill="currentColor"/></symbol>
    <symbol id="wide" viewBox="0 0 24 24" fill="none"><path d="M22.939 1.818a1 1 0 0 0-1-1h-9a1 1 0 1 0 0 2h8v8a1 1 0 1 0 2 0v-9Zm-8.778 9.193 8.485-8.486-1.414-1.414-8.486 8.485 1.415 1.415ZM1.06 22.182a1 1 0 0 0 1 1h9a1 1 0 0 0 0-2h-8v-8a1 1 0 1 0-2 0v9ZM9.84 12.99l-8.485 8.485 1.414 1.414 8.485-8.485-1.414-1.414Z" fill="currentColor"/></symbol>
    <symbol id="eye" viewBox="0 0 24 24" fill="none"><path d="M1 12s4-8 11-8 11 8 11 8-4 8-11 8-11-8-11-8Z" stroke="currentColor" stroke-width="2" stroke-linecap="round" stroke-linejoin="round"/><path d="M12 15a3 3 0 1 0 0-6 3 3 0 0 0 0 6Z" stroke="currentColor" stroke-width="2" stroke-linecap="round" stroke-linejoin="round"/></symbol>
    <symbol id="left" viewBox="0 0 12 12" fill="none"><path d="M.5.5a.5.5 0 0 1 1 0v11a.5.5 0 0 1-1 0V.5ZM2.5 2.2c0-.11.09-.2.2-.2h6.6c.11 0 .2.09.2.2v2.6a.2.2 0 0 1-.2.2H2.7a.2.2 0 0 1-.2-.2V2.2ZM2.5 6.2c0-.11.09-.2.2-.2h8.6c.11 0 .2.09.2.2v3.6a.2.2 0 0 1-.2.2H2.7a.2.2 0 0 1-.2-.2V6.2Z" fill="currentColor"/></symbol>
    <symbol id="center" viewBox="0 0 12 12" fill="none"><path d="M5.389.5c0-.276.273-.5.611-.5.338 0 .611.224.611.5v11c0 .276-.273.5-.611.5-.338 0-.611-.224-.611-.5V.5Z" fill="currentColor"/><path d="M1.722 2.2c0-.11.11-.2.245-.2h8.066c.135 0 .245.09.245.2v2.6c0 .11-.11.2-.245.2H1.967c-.135 0-.245-.09-.245-.2V2.2ZM.5 6.2c0-.11.11-.2.244-.2h10.512c.135 0 .244.09.244.2v3.6c0 .11-.11.2-.244.2H.744C.61 10 .5 9.91.5 9.8V6.2Z" fill="currentColor"/></symbol>
    <symbol id="right" viewBox="0 0 12 12" fill="none"><path d="M11.5.5a.5.5 0 0 0-1 0v11a.5.5 0 0 0 1 0V.5ZM9.5 2.2a.2.2 0 0 0-.2-.2H2.7a.2.2 0 0 0-.2.2v2.6c0 .11.09.2.2.2h6.6a.2.2 0 0 0 .2-.2V2.2ZM9.5 6.2a.2.2 0 0 0-.2-.2H.7a.2.2 0 0 0-.2.2v3.6c0 .11.09.2.2.2h8.6a.2.2 0 0 0 .2-.2V6.2Z" fill="currentColor"/></symbol>
    <symbol id="edit" viewBox="0 0 24 24" fill="none"><path d="m7 17.013 4.413-.015 9.632-9.54c.378-.378.586-.88.586-1.414 0-.534-.208-1.036-.586-1.414l-1.586-1.586c-.756-.756-2.075-.752-2.825-.003L7 12.583v4.43ZM18.045 4.458l1.589 1.583-1.597 1.582-1.586-1.585 1.594-1.58ZM9 13.417l6.03-5.973 1.586 1.586-6.029 5.971L9 15.006v-1.589Z" fill="currentColor"/><path d="M5 21h14c1.103 0 2-.897 2-2v-8.668l-2 2V19H8.158c-.026 0-.053.01-.079.01-.033 0-.066-.009-.1-.01H5V5h6.847l2-2H5c-1.103 0-2 .897-2 2v14c0 1.103.897 2 2 2Z" fill="currentColor"/></symbol>
    <symbol id="sort" viewBo="0 0 24 24" fill="none"><path fill-rule="evenodd" clip-rule="evenodd" d="M16 5.25a.75.75 0 0 1 .538.228l4 4.125a.751.751 0 1 1-1.076 1.044L16.75 7.851V18a.75.75 0 0 1-1.5 0V7.85l-2.712 2.797a.752.752 0 0 1-1.245-.213.75.75 0 0 1 .17-.831l4-4.125A.75.75 0 0 1 16 5.25Zm-8 0a.75.75 0 0 1 .75.75v10.15l2.712-2.797a.75.75 0 1 1 1.076 1.044l-4 4.125a.75.75 0 0 1-1.076 0l-4-4.125a.75.75 0 1 1 1.076-1.044l2.712 2.796V6A.75.75 0 0 1 8 5.25Z" fill="currentColor"/></symbol>
    <symbol id="drag-and-drop" viewBox="0 0 24 24" fill="none"><path d="M8 10c-1.1 0-2 .9-2 2s.9 2 2 2 2-.9 2-2-.9-2-2-2Zm0-6c-1.1 0-2 .9-2 2s.9 2 2 2 2-.9 2-2-.9-2-2-2Zm0 12c-1.1 0-2 .9-2 2s.9 2 2 2 2-.9 2-2-.9-2-2-2ZM17 10c-1.1 0-2 .9-2 2s.9 2 2 2 2-.9 2-2-.9-2-2-2Zm0-6c-1.1 0-2 .9-2 2s.9 2 2 2 2-.9 2-2-.9-2-2-2Zm0 12c-1.1 0-2 .9-2 2s.9 2 2 2 2-.9 2-2-.9-2-2-2Z" fill="currentColor"/></symbol>
    <symbol id="dropdown" viewBox="0 0 18 14" fill="none"><rect x="1" y="1" width="16" height="11.355" rx=".774" fill="#FFC350" fill-opacity=".7"/><rect x="2.032" y="4.613" width="8.774" height="1.032" rx=".258" fill="#fff"/><rect x="2.032" y="6.677" width="8.774" height="1.032" rx=".258" fill="#fff"/><rect x="2.032" y="8.742" width="8.774" height="1.032" rx=".258" fill="#fff"/><rect x="2.032" y="8.742" width="8.774" height="1.032" rx=".258" fill="#fff"/><rect x="1" y="1" width="16" height="2.581" rx=".774" fill="#FFC350"/><rect x="2.032" y="1.774" width="8.774" height="1.032" rx=".258" fill="#fff"/><path d="m14.678 2.032.516.516.516-.516" stroke="#fff" stroke-width=".258"/></symbol>
    <symbol id="download" viewBox="0 0 24 24" fill="none"><rect y="3" width="24" height="18" rx=".716" fill="#FFC350"/><path d="m12 8.667-1.667 2.083h1.25v2.917h.833V10.75h1.25L12 8.667Z" fill="#fff"/><path d="M15.333 14.361H8.666v-2.917h-.833v2.917c0 .46.374.833.833.833h6.667c.46 0 .833-.373.833-.833v-2.917h-.833v2.917Z" fill="#fff"/></symbol>
    <symbol id="txt-fields" viewBox="0 0 19 14" fill="none" xmlns="http://www.w3.org/2000/svg">
    <path d="M0 0.835999C0 0.374289 0.393263 0 0.878376 0H17.2747C17.7598 0 18.1531 0.374289 18.1531 0.835999V2.508C18.1531 2.9697 17.7598 3.34399 17.2747 3.34399H0.878377C0.393263 3.34399 0 2.9697 0 2.508V0.835999Z" fill="#FFC350"/>
    <path d="M2.04954 1.672C2.04954 1.9798 1.78737 2.22933 1.46396 2.22933C1.14055 2.22933 0.878376 1.9798 0.878376 1.672C0.878376 1.36419 1.14055 1.11466 1.46396 1.11466C1.78737 1.11466 2.04954 1.36419 2.04954 1.672Z" fill="white"/>
    <path d="M0 5.85199C0 5.39028 0.393263 5.01599 0.878376 5.01599H17.2747C17.7598 5.01599 18.1531 5.39028 18.1531 5.85199V7.52399C18.1531 7.9857 17.7598 8.35999 17.2747 8.35999H0.878377C0.393263 8.35999 0 7.9857 0 7.52399V5.85199Z" fill="#FFC350"/>
    <path d="M2.04954 6.68799C2.04954 6.99579 1.78737 7.24532 1.46396 7.24532C1.14055 7.24532 0.878376 6.99579 0.878376 6.68799C0.878376 6.38018 1.14055 6.13066 1.46396 6.13066C1.78737 6.13066 2.04954 6.38018 2.04954 6.68799Z" fill="white"/>
    <path d="M0 10.868C0 10.4063 0.393263 10.032 0.878376 10.032H17.2747C17.7598 10.032 18.1531 10.4063 18.1531 10.868V12.54C18.1531 13.0017 17.7598 13.376 17.2747 13.376H0.878377C0.393263 13.376 0 13.0017 0 12.54V10.868Z" fill="#FFC350"/>
    <path d="M2.04954 11.704C2.04954 12.0118 1.78737 12.2613 1.46396 12.2613C1.14055 12.2613 0.878376 12.0118 0.878376 11.704C0.878376 11.3962 1.14055 11.1466 1.46396 11.1466C1.78737 11.1466 2.04954 11.3962 2.04954 11.704Z" fill="white"/>
    </symbol>
    <symbol id="connect" viewBox="0 0 24 24" fill="none"><path d="M16.8 4.8c-1.765 0-3.2 1.413-3.2 3.15 0 1.399.937 2.573 2.222 2.984-.134.838-.5 1.53-1.125 2.09-1.78 1.596-5.053 1.742-6.583 1.717V9.152C9.431 8.763 10.4 7.572 10.4 6.15 10.4 4.413 8.965 3 7.2 3 5.435 3 4 4.413 4 6.15c0 1.422.97 2.613 2.286 3.003v5.694C4.969 15.237 4 16.428 4 17.85 4 19.587 5.435 21 7.2 21c1.765 0 3.2-1.413 3.2-3.15 0-.496-.128-.959-.335-1.376 1.883-.168 4.257-.681 5.86-2.115 1.002-.897 1.582-2.038 1.74-3.391C19.008 10.594 20 9.39 20 7.95c0-1.737-1.435-3.15-3.2-3.15ZM5.829 6.15c0-.744.615-1.35 1.371-1.35s1.371.606 1.371 1.35c0 .744-.615 1.35-1.371 1.35a1.363 1.363 0 0 1-1.371-1.35ZM7.2 19.2a1.363 1.363 0 0 1-1.371-1.35c0-.355.142-.695.396-.948.254-.252.598-.396.959-.4l.118.009a1.386 1.386 0 0 1 .951.43 1.341 1.341 0 0 1 .364.965 1.328 1.328 0 0 1-.436.936 1.37 1.37 0 0 1-.981.358Zm9.6-9.9a1.362 1.362 0 0 1-1.371-1.35c0-.744.615-1.35 1.371-1.35s1.371.606 1.371 1.35c0 .744-.615 1.35-1.371 1.35Z" fill="currentColor"/></symbol>
    <symbol id="date-green" viewBox="0 0 30 30" fill="none"><rect x="1.496" y="5.554" width="27.008" height="18.893" rx=".784" fill="#FFC350"/><circle cx="4.893" cy="9.772" r=".784" fill="#fff"/><circle cx="8.03" cy="9.772" r=".784" fill="#fff"/><circle cx="11.165" cy="9.772" r=".784" fill="#fff"/><circle cx="4.893" cy="12.386" r=".784" fill="#fff"/><circle cx="8.03" cy="12.386" r=".784" fill="#fff"/><circle cx="11.165" cy="12.386" r=".784" fill="#fff"/><circle cx="4.893" cy="15" r=".784" fill="#fff"/><circle cx="8.03" cy="15" r=".784" fill="#fff"/><circle cx="11.165" cy="15" r=".784" fill="#fff"/><g clip-path="url(#a)" fill="#fff"><path d="M23.275 16.432c-1.601 0-2.904 1.284-2.904 2.862 0 1.579 1.303 2.863 2.904 2.863s2.904-1.284 2.904-2.863c0-1.578-1.303-2.862-2.904-2.862Zm0 5.152c-1.28 0-2.323-1.027-2.323-2.29 0-1.262 1.042-2.29 2.323-2.29s2.323 1.027 2.323 2.29c0 1.263-1.042 2.29-2.323 2.29Z"/><path d="M23.565 17.863h-.58v1.718h1.742v-.573h-1.162v-1.145Z"/></g><defs><clipPath id="a"><path fill="#fff" transform="translate(19.791 15.86)" d="M0 0h6.97v6.87H0z"/></clipPath></defs></symbol>
    <symbol id="hint" viewBox="0 0 18 18" fill="none"><path d="M1.5 14.681V3c0-.413.147-.766.441-1.06.294-.294.647-.44 1.059-.44h12c.412 0 .766.147 1.06.441.294.294.44.647.44 1.059v9c0 .412-.147.766-.441 1.06-.294.294-.647.44-1.059.44H4.5l-1.725 1.725c-.237.238-.51.29-.816.16-.306-.131-.46-.366-.459-.704Zm1.5-1.8L3.881 12H15V3H3v9.881Z" fill="currentColor"/></symbol>
    <symbol id="checked" viewBox="0 0 18 18" fill="none"><path d="m15 5-6.489 7.915a.1.1 0 0 1-.147.009L3 7.667" stroke="currentColor" stroke-width="2" stroke-linecap="round"/></symbol>
    <symbol id="checkList" viewBox=" 0 0 20 20" fill="none"><path d="M9.354 7.854a.5.5 0 1 0-.708-.708L7.234 8.558l-.397-.362a.5.5 0 0 0-.674.738l.75.685a.5.5 0 0 0 .69-.016l1.75-1.75.001.001Zm0 4.292a.499.499 0 0 1 0 .708l-1.75 1.75a.5.5 0 0 1-.691.015l-.75-.685a.5.5 0 0 1 .674-.738l.397.363 1.412-1.413a.5.5 0 0 1 .708 0ZM11 12.75a.5.5 0 0 0 0 1h2.5a.5.5 0 0 0 0-1H11Zm-.5-4.5a.5.5 0 0 1 .5-.5h2.5a.5.5 0 0 1 0 1H11a.5.5 0 0 1-.5-.5ZM8.5 2a1.5 1.5 0 0 0-1.415 1H5.5A1.5 1.5 0 0 0 4 4.5v12A1.5 1.5 0 0 0 5.5 18h9a1.5 1.5 0 0 0 1.5-1.5v-12A1.5 1.5 0 0 0 14.5 3h-1.585A1.5 1.5 0 0 0 11.5 2h-3ZM8 3.5a.5.5 0 0 1 .5-.5h3a.5.5 0 0 1 0 1h-3a.5.5 0 0 1-.5-.5ZM5.5 4h1.585A1.5 1.5 0 0 0 8.5 5h3a1.5 1.5 0 0 0 1.415-1H14.5a.5.5 0 0 1 .5.5v12a.5.5 0 0 1-.5.5h-9a.5.5 0 0 1-.5-.5v-12a.5.5 0 0 1 .5-.5Z" fill="currentColor"/></symbol>
    <symbol id="cards" viewBox="0 0 24 24" fill="none"><path d="M9.268 2H1.069C.48 2 0 2.65 0 3.451v18.383c0 .802.479 1.452 1.07 1.452h8.198c.59 0 1.07-.65 1.07-1.452V3.451c0-.801-.48-1.451-1.07-1.451Z" fill="#FFC350"/><path d="M1.744 4.743c.394 0 .713-.433.713-.968 0-.534-.32-.967-.713-.967-.394 0-.713.433-.713.967 0 .535.32.968.713.968Z" fill="#fff"/><path d="M21.744 2h-8.198c-.591 0-1.07.65-1.07 1.451v18.383c0 .802.479 1.452 1.07 1.452h8.198c.59 0 1.07-.65 1.07-1.452V3.451c0-.801-.48-1.451-1.07-1.451Z" fill="#FFC350"/><path d="M14.22 4.743c.394 0 .713-.433.713-.968 0-.534-.319-.967-.713-.967-.393 0-.713.433-.713.967 0 .535.32.968.713.968Z" fill="#fff"/></symbol>
    <symbol id="range" viewBox="0 0 24 24" fill="none"><rect x="2" y="10.333" width="21" height="2.333" rx="1.167" fill="#FFC350" fill-opacity=".15"/><rect x="2" y="9.167" width="12.833" height="4.667" rx="2" fill="#FFD749" fill-opacity=".25"/><circle cx="12.5" cy="11.5" r="3.5" fill="#FFC350"/></symbol>
    <symbol id="video" viewBox="0 0 24 24" fill="none"><ellipse cx="12" cy="12.034" rx="12" ry="12.034" fill="#FFC350" fill-opacity=".4"/><path d="m10.648 7.669 5.647 3.775a.707.707 0 0 1 0 1.18L10.648 16.4a.705.705 0 0 1-1.098-.59V8.259a.71.71 0 0 1 .74-.708.705.705 0 0 1 .358.118Z" fill="#FFC350"/></symbol>
    <symbol id="input" viewBox="0 0 18 14" fill="none"><path d="M15.362 2H2.635a.682.682 0 0 0-.682.682v8.636c0 .377.305.682.682.682h12.727a.682.682 0 0 0 .682-.682V2.682A.682.682 0 0 0 15.362 2Z" fill="#FFC350"/><path d="M13.09 2.91h-10a.227.227 0 0 0-.227.226v.455c0 .126.102.227.228.227h10a.227.227 0 0 0 .227-.227v-.455a.227.227 0 0 0-.227-.227ZM9.227 4.727H3.09a.227.227 0 0 0-.228.228v.454c0 .126.102.227.228.227h6.136a.227.227 0 0 0 .227-.227v-.454a.227.227 0 0 0-.227-.228Z" fill="#fff"/></symbol>
    <symbol id="image-n-list" fill="none" viewBox="0 0 18 14"><path d="M1.5 3.776c0-.254.217-.46.484-.46h9.032c.267 0 .484.206.484.46v.921c0 .255-.217.46-.484.46H1.984a.473.473 0 0 1-.484-.46v-.92Z" fill="#FFC350"/><path d="M2.629 4.237c0 .17-.144.307-.323.307a.315.315 0 0 1-.322-.307c0-.17.144-.307.322-.307.179 0 .323.137.323.307Z" fill="#fff"/><path d="M1.5 6.54c0-.255.217-.461.484-.461h9.032c.267 0 .484.206.484.46v.921c0 .255-.217.46-.484.46H1.984a.473.473 0 0 1-.484-.46v-.92Z" fill="#FFC350"/><path d="M2.629 7c0 .17-.144.307-.323.307A.315.315 0 0 1 1.984 7c0-.17.144-.307.322-.307.179 0 .323.137.323.307Z" fill="#fff"/><path d="M1.5 9.303c0-.255.217-.461.484-.461h9.032c.267 0 .484.206.484.46v.922c0 .254-.217.46-.484.46H1.984a.473.473 0 0 1-.484-.46v-.921Z" fill="#FFC350"/><path d="M2.629 9.763c0 .17-.144.307-.323.307a.315.315 0 0 1-.322-.307c0-.17.144-.307.322-.307.179 0 .323.137.323.307Z" fill="#fff"/><rect x="12.5" y="3.5" width="4" height="7" rx=".414" fill="#FFC350"/></symbol>
    <symbol id="vertical-ratio" viewBox="0 0 24 24" fill="none"><rect x="17" y="3" width="18" height="10" rx=".847" transform="rotate(90 17 3)" fill="currentColor"/><path d="M15.018 6.026a.793.793 0 0 1-.8-.785c0-.434.358-.786.8-.786.442 0 .8.352.8.786a.793.793 0 0 1-.8.785Z" fill="#fff"/></symbol>
    <symbol id="full-ratio" fill="none" viewBox="0 0 24 24"><rect x="2" y="3" width="20" height="18" rx=".847" fill="currentColor"/><path d="M5.767 5.161c0 .464-.342.84-.764.84-.423 0-.765-.376-.765-.84 0-.464.342-.84.765-.84.422 0 .764.376.764.84Z" fill="#fff"/></symbol>
    <symbol id="horizontal-ratio" viewBox="0 0 24 24" fill="none"><rect x="3" y="7" width="18.333" height="10" rx=".847" fill="currentColor"/><path d="M6.082 8.982a.8.8 0 1 1-1.6 0 .8.8 0 0 1 1.6 0Z" fill="#fff"/></symbol>
    <symbol id="grid-vertical" viewBox="0 0 25 24" fill="none"><rect x="1" y="3" width="8" height="8" rx=".847" fill="currentColor"/><ellipse cx="2.552" cy="5.045" rx=".552" ry=".545" fill="#fff"/><rect x="1" y="13" width="8" height="8" rx=".847" fill="currentColor"/><ellipse cx="2.552" cy="15.046" rx=".552" ry=".545" fill="#fff"/><rect x="11" y="3" width="8" height="8" rx=".847" fill="currentColor"/><ellipse cx="12.552" cy="5.045" rx=".552" ry=".545" fill="#fff"/><rect x="11" y="13" width="8" height="8" rx=".847" fill="currentColor"/><ellipse cx="12.552" cy="15.046" rx=".552" ry=".545" fill="#fff"/><rect x="22" y="3" width="2" height="18" rx="1" fill="currentColor" fill-opacity=".25"/><rect x="22" y="3" width="2" height="8" rx="1" fill="#FFC350"/></symbol>
    <symbol id="flex-horizontal" viewBox="0 0 24 24" fill="none"><rect x="3" y="3" width="8" height="14" rx=".847" fill="currentColor"/><ellipse cx="4.552" cy="5.045" rx=".552" ry=".545" fill="#fff"/><rect x="13" y="3" width="8" height="14" rx=".847" fill="currentColor"/><ellipse cx="14.552" cy="5.045" rx=".552" ry=".545" fill="#fff"/><rect x="3" y="21" width="2" height="18" rx="1" transform="rotate(-90 3 21)" fill="#EFEFEF"/><rect x="3" y="21" width="2" height="8" rx="1" transform="rotate(-90 3 21)" fill="currentColor"/></symbol>
    <symbol id="add-video" viewBox="0 0 24 24" fill="none"><path d="M10 16a.968.968 0 0 0 .713-.288A.964.964 0 0 0 11 15v-2h2a.968.968 0 0 0 .713-.288A.964.964 0 0 0 14 12a.968.968 0 0 0-.288-.713A.964.964 0 0 0 13 11h-2V9a.968.968 0 0 0-.288-.713A.964.964 0 0 0 10 8a.968.968 0 0 0-.713.288A.964.964 0 0 0 9 9v2H7a.968.968 0 0 0-.713.288A.964.964 0 0 0 6 12c0 .283.096.521.288.713.192.192.43.288.712.287h2v2c0 .283.096.521.288.713.192.192.43.288.712.287Zm-6 4c-.55 0-1.021-.196-1.413-.588A1.922 1.922 0 0 1 2 18V6c0-.55.196-1.021.588-1.413A1.922 1.922 0 0 1 4 4h12c.55 0 1.021.196 1.413.588.392.392.588.863.587 1.412v4.5l3.15-3.15a.476.476 0 0 1 .537-.113c.208.075.312.229.313.463v8.6c0 .233-.104.388-.313.463-.209.075-.388.038-.537-.113L18 13.5V18c0 .55-.196 1.021-.588 1.413A1.922 1.922 0 0 1 16 20H4Zm0-2h12V6H4v12Z" fill="currentColor"/></symbol>
    <symbol id="fluent" viewBox="0 0 18 18" fill="none"><path d="M9 1.501a2.906 2.906 0 0 0-2.906 2.907c0 2.19.905 4.914 1.36 6.149a1.64 1.64 0 0 0 1.548 1.067c.678 0 1.304-.406 1.547-1.063.454-1.23 1.357-3.94 1.357-6.153A2.906 2.906 0 0 0 9 1.5ZM7.219 4.408a1.781 1.781 0 0 1 3.562 0c0 1.991-.833 4.532-1.288 5.763a.514.514 0 0 1-.49.328.515.515 0 0 1-.494-.33C8.054 8.93 7.22 6.376 7.22 4.408ZM9 12.75a1.876 1.876 0 1 0 0 3.751 1.876 1.876 0 0 0 0-3.751Zm-.751 1.876a.75.75 0 1 1 1.501 0 .75.75 0 0 1-1.501 0Z" fill="currentColor"/></symbol>
    <symbol id="button-variant" viewBox="0 0 130 105" fill="none" ><g clip-path="url(#a)"><path fill="#444758" d="M0 0h130.224v14.57H0z"/><circle cx="10.473" cy="6.83" r="4.098" fill="#E30045"/><circle cx="22.309" cy="6.83" r="4.098" fill="#FFC463"/><circle cx="34.145" cy="6.83" r="4.098" fill="#33AB54"/><path d="M0 14.57h130.224v81.967a7.279 7.279 0 0 1-7.278 7.278H7.278A7.278 7.278 0 0 1 0 96.537V14.571Z" fill="#F8FAFB"/><rect x="8.195" y="25.498" width="112.011" height="10.473" rx="1.821" fill="#FFC350"/><rect x="8.195" y="43.256" width="112.011" height="10.473" rx="1.821" fill="#FFC350"/><rect x="8.195" y="61.014" width="112.011" height="10.473" rx="1.821" fill="#FFC350"/><rect x="8.195" y="78.772" width="41.89" height="13.66" rx="2.277" fill="#49C674"/></g><defs><clipPath id="a"><rect width="130" height="105" rx="3.643" fill="#fff"/></clipPath></defs></symbol>
    <symbol id="baner-variant" fill="none" viewBox="0 0 130 105"><g clip-path="url(#a)"><path fill="#444758" d="M0 0h129.572v14.498H0z"/><circle cx="10.421" cy="6.796" r="4.077" fill="#E30045"/><circle cx="22.195" cy="6.796" r="4.077" fill="#FFC463"/><circle cx="33.976" cy="6.796" r="4.077" fill="#33AB54"/><path d="M0 14.498h129.572v81.556a7.241 7.241 0 0 1-7.241 7.241H7.241c-3.999 0-7.241-3.242-7.241-7.24V14.497Z" fill="#F8FAFB"/><rect x="7.969" y="26.573" width="52.259" height="11" rx="1.821" fill="#FFC350"/><rect x="67.227" y="26.573" width="52.259" height="11" rx="1.821" fill="#49C674"/><rect x="7.969" y="44.822" width="112.011" height="10.473" rx="1.821" fill="#FFC350"/><rect x="7.969" y="62.543" width="112.011" height="10.473" rx="1.821" fill="#FFC350"/><rect x="7.969" y="80.265" width="112.011" height="10.473" rx="1.821" fill="#FFC350"/></g><defs><clipPath id="a"><rect width="130" height="105" rx="3.624" fill="#fff"/></clipPath></defs></symbol>
    <symbol id="body-variant" viewBox="0 0 130 105" fill="none"><g clip-path="url(#a)"><path fill="#444758" d="M0 0h129.572v14.498H0z"/><circle cx="10.421" cy="6.796" r="4.077" fill="#E30045"/><circle cx="22.195" cy="6.796" r="4.077" fill="#FFC463"/><circle cx="33.976" cy="6.796" r="4.077" fill="#33AB54"/><path d="M0 14.498h129.572v81.556a7.241 7.241 0 0 1-7.241 7.241H7.241c-3.999 0-7.241-3.242-7.241-7.24V14.497Z" fill="#F8FAFB"/><rect x="8.148" y="25.371" width="111.45" height="10.42" rx="1.812" fill="#FFC350"/><rect x="8.148" y="43.04" width="59.379" height="10.138" rx="1.812" fill="#FFC350"/><rect x="8.148" y="60.426" width="111.517" height="32.586" rx="2.265" fill="#49C674"/></g><defs><clipPath id="a"><rect width="130" height="105" rx="3.624" fill="#fff"/></clipPath></defs></symbol>
    <symbol id="open-variant" viewBox="0 0 130 105" fill="none"><g clip-path="url(#a)"><path fill="#444758" d="M0 0h129.572v14.498H0z"/><circle cx="10.421" cy="6.796" r="4.077" fill="#E30045"/><circle cx="22.195" cy="6.796" r="4.077" fill="#FFC463"/><circle cx="33.976" cy="6.796" r="4.077" fill="#33AB54"/><path d="M0 14.498h129.572v81.556a7.241 7.241 0 0 1-7.241 7.241H7.241c-3.999 0-7.241-3.242-7.241-7.24V14.497Z" fill="#F8FAFB"/><rect x="7.969" y="25.345" width="111.517" height="66.621" rx="2.265" fill="#49C674"/></g><defs><clipPath id="a"><rect width="130" height="105" rx="3.624" fill="#fff"/></clipPath></defs></symbol>
    <symbol id="paint" viewBox="0 0 25 25" fill="none"><path fill-rule="evenodd" clip-rule="evenodd" d="M21.09 5.996c-1.813-1.04-.454-3.599.61-4.968.06-.078.193-.026.2.073.061.988.842 1.892 1.265 2.248a1.804 1.804 0 0 1 .466 1.966c-.81 1.325-2.03 1.006-2.54.68Zm-4.836 7.828c0-.124.071-1.08 1.042-2.106 1.213-1.283 1.296-4.824-2.157-6.192C9.068 2.637 4.633 5.334 3.174 7.044 2.036 8.212.014 11.163.016 14.394c.002 3.856 1.941 7.544 6.237 9.36 4.295 1.817 9.307-.064 11.043-2.222 1.388-1.727 1.008-3.324.286-4.357l-.11-.165c-.817-1.24-1.09-1.653-1.178-2.102-.045-.225-.044-.459-.041-.81v-.274Zm-1.418-2.284a1.766 1.766 0 1 0 0-3.532 1.766 1.766 0 0 0 0 3.532Zm-2.93-3.707a1.766 1.766 0 1 1-3.531 0 1.766 1.766 0 0 1 3.531 0ZM5.445 11.54a1.766 1.766 0 1 0 0-3.532 1.766 1.766 0 0 0 0 3.532Zm-.003 2.83a1.766 1.766 0 1 1-3.532 0 1.766 1.766 0 0 1 3.532 0Zm.174 6.36a1.766 1.766 0 1 0 0-3.531 1.766 1.766 0 0 0 0 3.531Zm6.29.23a1.766 1.766 0 1 1-3.531 0 1.766 1.766 0 0 1 3.531 0Zm2.93-.23a1.766 1.766 0 1 0 0-3.531 1.766 1.766 0 0 0 0 3.531Zm5.851-12.246c-.029-.458-.018-1.434.261-1.68.78.307 1.726.13 2.068 0 .12.25.345.936.286 1.68h-2.615Zm-.035.793.333 12.254h1.968l.302-12.254h-2.603Zm.422 12.97h1.85c0 .092.002.192.004.297.015.836.036 1.947-.843 1.947-1.173 0-1.073-1.357-1.025-2.004.008-.1.014-.183.014-.24Z" fill="currentColor"/></symbol>
    <symbol id="world" viewBox="0 0 24 24" fill="none"><path d="M12 2C6.486 2 2 6.486 2 12s4.486 10 10 10 10-4.486 10-10S17.514 2 12 2ZM4 12c0-.899.156-1.762.431-2.569L6 11l2 2v2l2 2 1 1v1.931C7.061 19.436 4 16.072 4 12Zm14.33 4.873C17.677 16.347 16.687 16 16 16v-1a2 2 0 0 0-2-2h-4v-3a2 2 0 0 0 2-2V7h1a2 2 0 0 0 2-2v-.411C17.928 5.778 20 8.65 20 12c0 1.765-.588 3.48-1.67 4.873Z" fill="currentColor"/></symbol>
    <symbol id="fixed-right" fill="none" viewBox="0 0 12 12"><path d="M11.5.5a.5.5 0 0 0-1 0v11a.5.5 0 0 0 1 0V.5ZM9.5 2.2a.2.2 0 0 0-.2-.2H2.7a.2.2 0 0 0-.2.2v2.6c0 .11.09.2.2.2h6.6a.2.2 0 0 0 .2-.2V2.2ZM9.5 6.2a.2.2 0 0 0-.2-.2H.7a.2.2 0 0 0-.2.2v3.6c0 .11.09.2.2.2h8.6a.2.2 0 0 0 .2-.2V6.2Z" fill="currentColor"/><ellipse cx="1.552" cy="1.545" rx=".552" ry=".545" fill="#fff"/></symbol>
    <symbol id="fixed-left" viewBox="0 0 12 12" fill="none"><path d="M0 .5a.5.5 0 0 1 1 0v11a.5.5 0 0 1-1 0V.5ZM2 2.2c0-.11.09-.2.2-.2h6.6c.11 0 .2.09.2.2v2.6a.2.2 0 0 1-.2.2H2.2a.2.2 0 0 1-.2-.2V2.2ZM2 6.2c0-.11.09-.2.2-.2h8.6c.11 0 .2.09.2.2v3.6a.2.2 0 0 1-.2.2H2.2a.2.2 0 0 1-.2-.2V6.2Z" fill="currentColor"/><ellipse cx=".552" cy=".545" rx=".552" ry=".545" transform="matrix(-1 0 0 1 10.5 1)" fill="#fff"/></symbol>
    <symbol id="baner-tl" fill="none" viewBox="0 0 12 12"><rect width="12" height="12" rx="1" fill="currentColor"/><rect x="1" y="1" width="5" height="2" rx=".4" fill="#fff"/></symbol>
    <symbol id="baner-tr" fill="none" viewBox="0 0 12 12"><rect width="12" height="12" rx="1" fill="currentColor"/><rect x="6" y="1" width="5" height="2" rx=".4" fill="#fff"/></symbol>
    <symbol id="baner-bl" fill="none" viewBox="0 0 12 12"><rect width="12" height="12" rx="1" fill="currentColor"/><rect x="1" y="9" width="5" height="2" rx=".4" fill="#fff"/></symbol>
    <symbol id="baner-br" fill="none" viewBox="0 0 12 12"><rect width="12" height="12" rx="1" fill="currentColor"/><rect x="6" y="9" width="5" height="2" rx=".4" fill="#fff"/></symbol>
    <symbol id="baner-full-top" fill="none" viewBox="0 0 12 12"><rect width="12" height="12" rx="1" fill="currentColor"/><rect x="1" y="1" width="10" height="2" rx=".4" fill="#fff"/></symbol>
    <symbol id="baner-full-bottom" fill="none" viewBox="0 0 12 12"><rect width="12" height="12" rx="1" fill="currentColor"/><rect x="1" y="9" width="10" height="2" rx=".4" fill="#fff"/></symbol>
    <symbol id="monitor" viewBox="0 0 24 24" fill="none"><path d="M21 16H3V4h18m0-2H3c-1.11 0-2 .89-2 2v12a2 2 0 0 0 2 2h7v2H8v2h8v-2h-2v-2h7a2 2 0 0 0 2-2V4a2 2 0 0 0-2-2Z" fill="currentColor"/></symbol>
    <symbol id="desktop" viewBox="0 0 12 12" fill="none"><path fill="currentColor" d="M1.5 1.5A.5.5 0 0 0 1 2v6.5a.5.5 0 0 0 .5.5H5l-.927.927a.25.25 0 0 0-.073.177v.146c0 .138.112.25.25.25h3.5a.25.25 0 0 0 .25-.25v-.146a.25.25 0 0 0-.073-.177L7 9h3.5a.5.5 0 0 0 .5-.5V2a.5.5 0 0 0-.5-.5h-9Z"/></symbol>
    <symbol id="all-devices" viewBox="0 0 12 12" fill="none"><path fill="currentColor" fill-rule="evenodd" d="M1.219 1.178a.5.5 0 0 0-.5.5v6.5a.5.5 0 0 0 .5.5h3.5l-.927.927a.25.25 0 0 0-.073.177v.146c0 .138.112.25.25.25h3.5a.25.25 0 0 0 .25-.25v-.146a.25.25 0 0 0-.073-.177l-.927-.927h.713V4.393c0-.237.192-.429.428-.429h2.859V1.678a.5.5 0 0 0-.5-.5h-9ZM7.86 4.661c0-.148.11-.268.245-.268h2.94c.134 0 .244.12.244.268v5.893c0 .147-.11.267-.245.267H8.105c-.135 0-.245-.12-.245-.268V4.661Zm1.045 5.028c0-.114.085-.207.19-.207h.92c.104 0 .19.093.19.207 0 .114-.085.207-.19.207h-.92c-.105 0-.19-.093-.19-.207Z" clip-rule="evenodd"/></symbol>
    <symbol id="mobile" viewBox="0 0 12 12" fill="none"><path fill="currentColor" fill-rule="evenodd" d="M3.429.857A.429.429 0 0 0 3 1.286v9.428c0 .237.192.429.429.429H8.57A.429.429 0 0 0 9 10.714V1.286a.429.429 0 0 0-.429-.429H3.43ZM5.159 9a.331.331 0 1 0 0 .662h1.612a.331.331 0 0 0 0-.662H5.159Z" clip-rule="evenodd"/></symbol>
</svg>
